<svg xmlns="http://www.w3.org/2000/svg" xmlns:xlink="http://www.w3.org/1999/xlink" version="1.0" x="0" y="0" width="2400" height="1189.7841811356896" viewBox="78.965 79.86999877929688 182.07 90.26000244140624" preserveAspectRatio="xMidYMid meet" color-interpolation-filters="sRGB"><g><defs><linearGradient id="92" x1="0%" y1="0%" x2="100%" y2="0%"><stop offset="0%" stop-color="#fa71cd"></stop> <stop offset="100%" stop-color="#9b59b6"></stop></linearGradient><linearGradient id="93" x1="0%" y1="0%" x2="100%" y2="0%"><stop offset="0%" stop-color="#f9d423"></stop> <stop offset="100%" stop-color="#f83600"></stop></linearGradient><linearGradient id="94" x1="0%" y1="0%" x2="100%" y2="0%"><stop offset="0%" stop-color="#0064d2"></stop> <stop offset="100%" stop-color="#1cb0f6"></stop></linearGradient><linearGradient id="95" x1="0%" y1="0%" x2="100%" y2="0%"><stop offset="0%" stop-color="#f00978"></stop> <stop offset="100%" stop-color="#3f51b1"></stop></linearGradient><linearGradient id="96" x1="0%" y1="0%" x2="100%" y2="0%"><stop offset="0%" stop-color="#7873f5"></stop> <stop offset="100%" stop-color="#ec77ab"></stop></linearGradient><linearGradient id="97" x1="0%" y1="0%" x2="100%" y2="0%"><stop offset="0%" stop-color="#f9d423"></stop> <stop offset="100%" stop-color="#e14fad"></stop></linearGradient><linearGradient id="98" x1="0%" y1="0%" x2="100%" y2="0%"><stop offset="0%" stop-color="#009efd"></stop> <stop offset="100%" stop-color="#2af598"></stop></linearGradient><linearGradient id="99" x1="0%" y1="0%" x2="100%" y2="0%"><stop offset="0%" stop-color="#ffcc00"></stop> <stop offset="100%" stop-color="#00b140"></stop></linearGradient><linearGradient id="100" x1="0%" y1="0%" x2="100%" y2="0%"><stop offset="0%" stop-color="#d51007"></stop> <stop offset="100%" stop-color="#ff8177"></stop></linearGradient><linearGradient id="102" x1="0%" y1="0%" x2="100%" y2="0%"><stop offset="0%" stop-color="#a2b6df"></stop> <stop offset="100%" stop-color="#0c3483"></stop></linearGradient><linearGradient id="103" x1="0%" y1="0%" x2="100%" y2="0%"><stop offset="0%" stop-color="#7ac5d8"></stop> <stop offset="100%" stop-color="#eea2a2"></stop></linearGradient><linearGradient id="104" x1="0%" y1="0%" x2="100%" y2="0%"><stop offset="0%" stop-color="#00ecbc"></stop> <stop offset="100%" stop-color="#007adf"></stop></linearGradient><linearGradient id="105" x1="0%" y1="0%" x2="100%" y2="0%"><stop offset="0%" stop-color="#b88746"></stop> <stop offset="100%" stop-color="#fdf5a6"></stop></linearGradient></defs><g fill="#333333" class="icon-text-wrapper icon-svg-group iconsvg" transform="translate(80.75,81.65499877929688)"><g class="iconsvg-imagesvg" transform="translate(59.25,0)"><g><rect fill="#333333" fill-opacity="0" stroke-width="2" x="0" y="0" width="60" height="60" class="image-rect"></rect> <svg filter="url(#colors5926968882)" x="0" y="0" width="60" height="60" filtersec="colorsf2904790190" class="image-svg-svg primary" style="overflow: visible;"><svg xmlns="http://www.w3.org/2000/svg" viewBox="0 0 77.4 77.4"><path d="M2 38.7h36.7v36.7m-7.8 0V46.5H2m20.9 28.9v-21H2m13.2 7.7H2v13.2h13.2V62.1zm23.5 13.3h36.7V38.7M38.7 67.5h28.9V38.7M38.7 59.6h20.9V38.7m-7.7 13.2V38.7H38.7v13.2h13.2zM38.7 2v36.7h36.7M46.5 2v28.9h28.9M54.4 2v20.9h20.9m-13.2-7.7h13.2V2H62.1v13.2zM38.7 2H2v36.7M38.7 9.8H9.8v28.9m28.9-21h-21v20.9m7.7-13.2v13.2h13.2V25.4H25.4z" fill="none" stroke="#333" stroke-width="4" stroke-linecap="square" stroke-miterlimit="10"></path></svg></svg> <defs><filter id="colors5926968882"><feColorMatrix type="matrix" values="0 0 0 0 0.078125  0 0 0 0 0.23828125  0 0 0 0 0.55859375  0 0 0 1 0" class="icon-feColorMatrix "></feColorMatrix></filter> <filter id="colorsf2904790190"><feColorMatrix type="matrix" values="0 0 0 0 0.99609375  0 0 0 0 0.99609375  0 0 0 0 0.99609375  0 0 0 1 0" class="icon-fecolormatrix"></feColorMatrix></filter> <filter id="colorsb8847695814"><feColorMatrix type="matrix" values="0 0 0 0 0  0 0 0 0 0  0 0 0 0 0  0 0 0 1 0" class="icon-fecolormatrix"></feColorMatrix></filter></defs></g></g> <g transform="translate(0,67)"><g fill-rule="" class="tp-name iconsvg-namesvg"><g transform="scale(1)"><g><path d="M6.46 0.47L6.46 0.47Q4.96 0.47 3.41 0.1 1.86-0.27 0.82-0.88L0.82-0.88 0.99-4.68 1.78-4.68 2.63-2.79Q3.01-2 3.42-1.48 3.83-0.96 4.52-0.68L4.52-0.68Q4.98-0.49 5.41-0.42 5.83-0.36 6.35-0.36L6.35-0.36Q8.02-0.36 8.99-1.22 9.97-2.08 9.97-3.5L9.97-3.5Q9.97-4.79 9.29-5.53 8.62-6.27 7.15-6.95L7.15-6.95 6.02-7.45Q3.72-8.46 2.4-9.8 1.07-11.14 1.07-13.36L1.07-13.36Q1.07-15 1.9-16.17 2.74-17.33 4.22-17.96 5.69-18.59 7.67-18.59L7.67-18.59Q9.12-18.59 10.39-18.21 11.66-17.82 12.62-17.17L12.62-17.17 12.43-13.77 11.63-13.77 10.62-15.82Q10.18-16.73 9.79-17.12 9.39-17.52 8.82-17.63L8.82-17.63Q8.49-17.69 8.25-17.71 8.02-17.74 7.64-17.74L7.64-17.74Q6.3-17.74 5.32-16.96 4.35-16.18 4.35-14.81L4.35-14.81Q4.35-13.5 5.09-12.68 5.83-11.85 7.23-11.22L7.23-11.22 8.46-10.7Q11.11-9.55 12.26-8.25 13.41-6.95 13.41-4.93L13.41-4.93Q13.41-2.52 11.59-1.03 9.77 0.47 6.46 0.47ZM21.08 0L14.84 0 14.84-0.55 15.19-0.66Q16.18-0.96 16.18-2.03L16.18-2.03 16.18-16.12Q16.18-16.7 15.99-16.99 15.8-17.27 15.25-17.41L15.25-17.41 14.84-17.52 14.84-18.04 19.46-19.22 19.9-18.97 19.79-15.11 19.79-11.61Q20.75-12.4 21.89-12.98 23.02-13.55 24.34-13.55L24.34-13.55Q26.14-13.55 27.17-12.54 28.2-11.53 28.2-9.42L28.2-9.42 28.2-2Q28.2-1.45 28.42-1.12 28.64-0.79 29.18-0.63L29.18-0.63 29.43-0.55 29.43 0 23.19 0 23.19-0.55 23.52-0.66Q24.5-0.93 24.5-2.03L24.5-2.03 24.5-9.94Q24.5-11.06 24.12-11.5 23.74-11.94 22.78-11.94L22.78-11.94Q22.12-11.94 21.39-11.69 20.67-11.44 19.88-10.87L19.88-10.87 19.88-1.97Q19.88-1.42 20.09-1.1 20.31-0.77 20.83-0.63L20.83-0.63 21.08-0.55 21.08 0ZM37.37 0.38L37.37 0.38Q35.34 0.38 33.82-0.47 32.3-1.31 31.47-2.87 30.63-4.43 30.63-6.6L30.63-6.6Q30.63-8.76 31.52-10.32 32.41-11.88 33.93-12.72 35.45-13.55 37.37-13.55L37.37-13.55Q39.29-13.55 40.8-12.72 42.32-11.88 43.21-10.33 44.1-8.79 44.1-6.6L44.1-6.6Q44.1-4.43 43.27-2.86 42.43-1.29 40.93-0.45 39.42 0.38 37.37 0.38ZM37.37-0.38L37.37-0.38Q38.35-0.38 38.97-0.92 39.59-1.45 39.86-2.79 40.13-4.13 40.13-6.54L40.13-6.54Q40.13-8.98 39.86-10.33 39.59-11.69 38.97-12.22 38.35-12.76 37.37-12.76L37.37-12.76Q36.38-12.76 35.78-12.22 35.18-11.69 34.89-10.33 34.6-8.98 34.6-6.54L34.6-6.54Q34.6-4.13 34.89-2.79 35.18-1.45 35.78-0.92 36.38-0.38 37.37-0.38ZM51.63 0L45.36 0 45.36-0.52 45.8-0.63Q46.7-0.9 46.7-1.97L46.7-1.97 46.7-10.05Q46.68-10.62 46.51-10.94 46.35-11.25 45.8-11.36L45.8-11.36 45.36-11.47 45.36-11.96 49.8-13.55 50.13-13.25 50.32-11.55Q51.3-12.43 52.52-12.99 53.74-13.55 54.92-13.55L54.92-13.55Q56.72-13.55 57.7-12.57 58.67-11.58 58.67-9.55L58.67-9.55 58.67-1.94Q58.67-0.88 59.65-0.6L59.65-0.6 59.95-0.52 59.95 0 53.66 0 53.66-0.52 54.07-0.63Q54.97-0.93 54.97-1.97L54.97-1.97 54.97-10.1Q54.97-11.06 54.56-11.5 54.15-11.94 53.19-11.94L53.19-11.94Q51.85-11.94 50.4-10.76L50.4-10.76 50.4-1.94Q50.4-0.88 51.36-0.6L51.36-0.6 51.63-0.52 51.63 0ZM65.05 0.38L65.05 0.38Q63.49 0.38 62.4-0.51 61.32-1.4 61.32-3.07L61.32-3.07Q61.32-4.38 62.6-5.49 63.87-6.6 66.61-7.12L66.61-7.12Q67.07-7.23 67.69-7.32 68.3-7.42 68.91-7.53L68.91-7.53 68.91-9.47Q68.91-11.33 68.44-12.05 67.98-12.76 66.96-12.76L66.96-12.76 66.88-12.76Q66.25-12.76 65.88-12.36 65.51-11.96 65.4-11.06L65.4-11.06 65.32-10.7Q65.24-9.61 64.75-9.1 64.25-8.6 63.51-8.6L63.51-8.6Q62.83-8.6 62.38-9.02 61.93-9.44 61.93-10.13L61.93-10.13Q61.93-11.25 62.69-12.02 63.46-12.78 64.73-13.17 66-13.55 67.48-13.55L67.48-13.55Q69.92-13.55 71.21-12.37 72.49-11.2 72.49-8.54L72.49-8.54 72.49-2.44Q72.49-1.26 73.62-1.26L73.62-1.26 74.24-1.26 74.52-0.96Q74.03-0.33 73.42 0.01 72.82 0.36 71.78 0.36L71.78 0.36Q70.6 0.36 69.91-0.21 69.21-0.77 68.99-1.7L68.99-1.7Q68.11-0.77 67.26-0.19 66.42 0.38 65.05 0.38ZM66.63-1.37L66.63-1.37Q67.18-1.37 67.67-1.62 68.17-1.86 68.91-2.44L68.91-2.44 68.91-6.82Q68.19-6.71 67.46-6.54L67.46-6.54Q66.28-6.27 65.55-5.53 64.83-4.79 64.83-3.53L64.83-3.53Q64.83-2.44 65.33-1.9 65.84-1.37 66.63-1.37ZM81.42 0L75.15 0 75.15-0.52 75.59-0.63Q76.49-0.9 76.49-1.97L76.49-1.97 76.49-10.05Q76.46-10.62 76.3-10.94 76.13-11.25 75.59-11.36L75.59-11.36 75.15-11.47 75.15-11.96 79.58-13.55 79.91-13.25 80.1-11.55Q81.09-12.43 82.31-12.99 83.53-13.55 84.7-13.55L84.7-13.55Q86.51-13.55 87.48-12.57 88.45-11.58 88.45-9.55L88.45-9.55 88.45-1.94Q88.45-0.88 89.44-0.6L89.44-0.6 89.74-0.52 89.74 0 83.44 0 83.44-0.52 83.85-0.63Q84.76-0.93 84.76-1.97L84.76-1.97 84.76-10.1Q84.76-11.06 84.35-11.5 83.94-11.94 82.98-11.94L82.98-11.94Q81.64-11.94 80.19-10.76L80.19-10.76 80.19-1.94Q80.19-0.88 81.14-0.6L81.14-0.6 81.42-0.52 81.42 0ZM100.72 0L96.89 0 96.89-0.6 97.43-0.77Q97.95-0.93 98.14-1.3 98.34-1.67 98.34-2.27L98.34-2.27 98.34-15.82Q98.34-16.37 98.2-16.71 98.06-17.06 97.51-17.25L97.51-17.25 96.89-17.49 96.89-18.1 102.11-18.1 107.26-4.71 112.11-18.1 117.44-18.1 117.44-17.49 117.01-17.36Q116.49-17.19 116.3-16.85 116.1-16.51 116.1-15.96L116.1-15.96Q116.08-14.37 116.08-12.8 116.08-11.22 116.08-9.61L116.08-9.61 116.08-8.49Q116.08-6.9 116.08-5.31 116.08-3.72 116.1-2.16L116.1-2.16Q116.1-1.59 116.24-1.29 116.38-0.99 116.9-0.79L116.9-0.79 117.44-0.6 117.44 0 110.79 0 110.79-0.6 111.39-0.79Q111.91-0.99 112.04-1.3 112.16-1.62 112.16-2.16L112.16-2.16 112.16-8.1 112.22-15.44 106.63 0 105.1 0 99.21-15.28 99.32-9.03 99.32-2.24Q99.32-1.64 99.49-1.29 99.65-0.93 100.17-0.79L100.17-0.79 100.72-0.6 100.72 0ZM121.83-15.06L121.83-15.06Q120.92-15.06 120.29-15.63 119.66-16.21 119.66-17.08L119.66-17.08Q119.66-17.99 120.29-18.55 120.92-19.11 121.83-19.11L121.83-19.11Q122.73-19.11 123.36-18.55 123.99-17.99 123.99-17.08L123.99-17.08Q123.99-16.21 123.36-15.63 122.73-15.06 121.83-15.06ZM124.95 0L118.68 0 118.68-0.52 119.09-0.63Q119.63-0.79 119.83-1.12 120.02-1.45 120.05-2L120.05-2 120.05-7.04Q120.05-7.88 120.05-8.61 120.05-9.34 120.02-10.1L120.02-10.1Q120.02-10.65 119.81-10.96 119.61-11.28 119.06-11.39L119.06-11.39 118.68-11.47 118.68-11.96 123.47-13.55 123.8-13.25 123.71-9.36 123.71-1.97Q123.71-1.42 123.92-1.1 124.12-0.77 124.64-0.6L124.64-0.6 124.95-0.52 124.95 0ZM132.42 0L126.15 0 126.15-0.52 126.59-0.63Q127.49-0.9 127.49-1.97L127.49-1.97 127.49-10.05Q127.46-10.62 127.3-10.94 127.14-11.25 126.59-11.36L126.59-11.36 126.15-11.47 126.15-11.96 130.59-13.55 130.91-13.25 131.11-11.55Q132.09-12.43 133.31-12.99 134.53-13.55 135.7-13.55L135.7-13.55Q137.51-13.55 138.48-12.57 139.46-11.58 139.46-9.55L139.46-9.55 139.46-1.94Q139.46-0.88 140.44-0.6L140.44-0.6 140.74-0.52 140.74 0 134.45 0 134.45-0.52 134.86-0.63Q135.76-0.93 135.76-1.97L135.76-1.97 135.76-10.1Q135.76-11.06 135.35-11.5 134.94-11.94 133.98-11.94L133.98-11.94Q132.64-11.94 131.19-10.76L131.19-10.76 131.19-1.94Q131.19-0.88 132.15-0.6L132.15-0.6 132.42-0.52 132.42 0ZM145.83 0.38L145.83 0.38Q144.27 0.38 143.19-0.51 142.11-1.4 142.11-3.07L142.11-3.07Q142.11-4.38 143.38-5.49 144.66-6.6 147.39-7.12L147.39-7.12Q147.86-7.23 148.48-7.32 149.09-7.42 149.69-7.53L149.69-7.53 149.69-9.47Q149.69-11.33 149.23-12.05 148.76-12.76 147.75-12.76L147.75-12.76 147.67-12.76Q147.04-12.76 146.67-12.36 146.3-11.96 146.19-11.06L146.19-11.06 146.11-10.7Q146.03-9.61 145.53-9.1 145.04-8.6 144.3-8.6L144.3-8.6Q143.62-8.6 143.17-9.02 142.71-9.44 142.71-10.13L142.71-10.13Q142.71-11.25 143.48-12.02 144.25-12.78 145.52-13.17 146.79-13.55 148.27-13.55L148.27-13.55Q150.71-13.55 151.99-12.37 153.28-11.2 153.28-8.54L153.28-8.54 153.28-2.44Q153.28-1.26 154.4-1.26L154.4-1.26 155.03-1.26 155.31-0.96Q154.81-0.33 154.21 0.01 153.61 0.36 152.57 0.36L152.57 0.36Q151.39 0.36 150.69-0.21 150-0.77 149.78-1.7L149.78-1.7Q148.9-0.77 148.05-0.19 147.2 0.38 145.83 0.38ZM147.42-1.37L147.42-1.37Q147.97-1.37 148.46-1.62 148.96-1.86 149.69-2.44L149.69-2.44 149.69-6.82Q148.98-6.71 148.24-6.54L148.24-6.54Q147.07-6.27 146.34-5.53 145.62-4.79 145.62-3.53L145.62-3.53Q145.62-2.44 146.12-1.9 146.63-1.37 147.42-1.37ZM161.08 0.38L161.08 0.38Q159.39 0.38 158.41-0.45 157.44-1.29 157.44-3.18L157.44-3.18Q157.44-3.83 157.46-4.42 157.47-5.01 157.47-5.8L157.47-5.8 157.47-12.29 155.53-12.29 155.53-12.89 156.26-13Q157.06-13.14 157.62-13.5 158.18-13.85 158.65-14.48L158.65-14.48 160.43-16.95 161.25-16.95 161.17-13.14 164.29-13.14 164.29-12.29 161.14-12.29 161.14-2.96Q161.14-1.97 161.56-1.48 161.99-0.99 162.62-0.99L162.62-0.99Q163.16-0.99 163.6-1.25 164.04-1.51 164.48-1.94L164.48-1.94 164.83-1.53Q164.31-0.63 163.38-0.12 162.45 0.38 161.08 0.38ZM172.58 0.38L172.58 0.38Q170.56 0.38 169.04-0.47 167.52-1.31 166.68-2.87 165.85-4.43 165.85-6.6L165.85-6.6Q165.85-8.76 166.74-10.32 167.63-11.88 169.15-12.72 170.66-13.55 172.58-13.55L172.58-13.55Q174.5-13.55 176.02-12.72 177.54-11.88 178.43-10.33 179.32-8.79 179.32-6.6L179.32-6.6Q179.32-4.43 178.48-2.86 177.65-1.29 176.14-0.45 174.63 0.38 172.58 0.38ZM172.58-0.38L172.58-0.38Q173.57-0.38 174.18-0.92 174.8-1.45 175.07-2.79 175.35-4.13 175.35-6.54L175.35-6.54Q175.35-8.98 175.07-10.33 174.8-11.69 174.18-12.22 173.57-12.76 172.58-12.76L172.58-12.76Q171.6-12.76 170.99-12.22 170.39-11.69 170.1-10.33 169.82-8.98 169.82-6.54L169.82-6.54Q169.82-4.13 170.1-2.79 170.39-1.45 170.99-0.92 171.6-0.38 172.58-0.38Z" transform="translate(-0.8199999928474426, 19.219999313354492)"></path></g> </g></g> </g></g><defs v-gra="od"></defs></g></svg>